<?xml version="1.0" encoding="UTF-8" standalone="no"?>
<!-- Created with Inkscape (http://www.inkscape.org/) -->

<svg
   xmlns:dc="http://purl.org/dc/elements/1.1/"
   xmlns:cc="http://creativecommons.org/ns#"
   xmlns:rdf="http://www.w3.org/1999/02/22-rdf-syntax-ns#"
   xmlns:svg="http://www.w3.org/2000/svg"
   xmlns="http://www.w3.org/2000/svg"
   xmlns:sodipodi="http://sodipodi.sourceforge.net/DTD/sodipodi-0.dtd"
   xmlns:inkscape="http://www.inkscape.org/namespaces/inkscape"
   width="744.09448"
   height="847.35999"
   id="svg2"
   version="1.1"
   inkscape:version="0.48.4 r9939"
   sodipodi:docname="cover-background-2.svg.svg"
   inkscape:export-filename="/home/etn/Développement/www/etienne-gauvin.github.io/assets/images/cover-background-2.png"
   inkscape:export-xdpi="60.48"
   inkscape:export-ydpi="60.48">
  <defs
     id="defs4" />
  <sodipodi:namedview
     id="base"
     pagecolor="#ffffff"
     bordercolor="#666666"
     borderopacity="1.0"
     inkscape:pageopacity="0.0"
     inkscape:pageshadow="2"
     inkscape:zoom="0.49497475"
     inkscape:cx="995.28515"
     inkscape:cy="287.73526"
     inkscape:document-units="px"
     inkscape:current-layer="layer1"
     showgrid="false"
     inkscape:window-width="1920"
     inkscape:window-height="1000"
     inkscape:window-x="0"
     inkscape:window-y="34"
     inkscape:window-maximized="1"
     showguides="true"
     inkscape:guide-bbox="true">
    <sodipodi:guide
       orientation="0,1"
       position="912.85714,515.71429"
       id="guide3019" />
  </sodipodi:namedview>
  <metadata
     id="metadata7">
    <rdf:RDF>
      <cc:Work
         rdf:about="">
        <dc:format>image/svg+xml</dc:format>
        <dc:type
           rdf:resource="http://purl.org/dc/dcmitype/StillImage" />
        <dc:title></dc:title>
      </cc:Work>
    </rdf:RDF>
  </metadata>
  <g
     inkscape:label="Calque 1"
     inkscape:groupmode="layer"
     id="layer1"
     transform="translate(0,-205.00218)">
    <path
       style="fill:#010101"
       d="m 44.266633,1122.2426 c 38.453494,-13.0812 74.074947,-33.0393 107.146777,-56.5159 31.93685,-13.729 66.4872,-26.287 91.67548,-50.8555 5.44606,-29.76466 44.24747,-36.76526 67.33679,-51.20222 38.56671,-27.28074 79.70322,-50.74533 118.01562,-78.25651 24.47859,-15.90449 48.72081,-41.25104 52.83891,-71.25716 1.35516,-29.89701 -42.67719,-65.969 5.22113,-79.66637 24.27076,-25.2167 -28.07974,-40.34547 -46.21675,-45.38952 -43.86547,-12.01077 -89.32615,-14.6162 -134.05237,-21.27763 -17.14775,-24.86873 25.04141,-34.01059 39.30715,-46.92437 29.93753,-8.76518 45.9468,-42.46639 20.11586,-66.1747 -26.50726,-21.364 -31.90806,-37.50062 -29.79251,-66.12616 6.72342,-17.67683 2.21742,-47.53307 31.49293,-44.99237 37.48647,-2.45827 35.21345,-44.21748 10.84572,-61.80536 -12.2139,-30.82235 -5.01828,13.73838 8.93989,18.88567 11.56835,31.47484 -21.23315,41.64067 -43.53208,43.75913 -27.00284,13.6249 -23.1958,42.59026 -20.20209,65.56527 -11.59395,20.23513 31.43051,30.13209 27.88385,53.2181 -16.3658,40.46925 -63.18788,52.60251 -98.3327,72.37519 -40.22735,20.60429 -83.66152,50.01582 -93.74299,97.0108 -2.66497,21.14649 -42.40689,38.73705 -28.53329,58.11583 17.69925,16.60942 43.22195,24.72832 66.32869,14.16962 25.67601,-7.68769 50.84377,-18.99737 72.05814,-35.4303 19.36567,-30.7789 -53.6386,-29.34879 -58.23111,1.61391 -16.77988,15.85079 -40.80971,-1.4545 -37.73194,-22.27671 10.98001,-17.79121 32.41652,-29.72506 52.21665,-36.50629 50.10637,-13.54978 110.81386,-7.60639 149.35869,29.88129 24.81187,28.09188 8.08328,68.01894 -14.05823,91.871 -38.99599,42.38151 -90.85475,73.34059 -147.99953,83.5707 -39.40634,8.36413 -81.65761,4.03202 -119.243161,19.31884 C 64.527548,943.37059 40.357223,919.26632 24.547891,898.24184 1.2032059,871.81891 24.271473,846.05163 29.609337,820.98339 24.185773,802.1849 -4.9493804,793.55118 6.2056071,771.37204 13.444691,743.85568 30.457715,717.95102 55.696336,703.20243 83.488025,683.33848 115.94363,668.5733 135.1249,638.66487 c 30.50349,-26.10045 71.98119,-33.96801 108.81701,-47.74321 28.27131,-6.31591 48.24217,-28.01355 73.24765,-40.41653 2.87794,-18.49907 -35.60835,-39.59059 -7.52037,-51.47354 -6.6784,-24.28612 12.50519,-44.40263 31.15209,-57.81532 -31.63828,-2.84303 -48.23325,34.37327 -40.63154,59.04356 -28.30591,4.05686 -45.70472,8.33604 -11.31536,16.76692 18.63696,10.19315 -11.54849,10.12827 5.57272,25.32041 -11.37334,17.19601 -37.56665,14.99976 -53.28802,27.90485 -42.85493,16.02497 -90.95082,18.44006 -132.68185,38.8788 -38.73785,17.67096 -79.047099,34.60374 -109.15390424,65.77016 -13.58421576,4.52859 -38.68513276,44.9307 -43.74468376,30.04474 -3.269246,-40.80007 -7.27007,-81.56276 -9.88884,-122.39823 54.61818944,-18.66272 111.498118,-30.31684 169.440048,-30.05309 37.62262,-5.57987 76.43669,-8.59355 113.66088,-17.26257 -12.31789,-14.80018 39.67791,-5.20438 11.18443,-19.72216 -24.47038,-2.90116 -38.41545,-23.53529 -4.12486,-20.52345 31.98599,2.50732 55.7193,-3.34145 66.86935,-35.88406 6.53597,-19.07595 24.16387,-17.55709 5.76172,-13.18076 -24.25691,7.72012 -26.01212,47.02657 -61.48762,39.93786 -23.86341,8.29821 -80.4921,-2.27457 -53.38391,26.72402 -24.71913,10.02568 -56.424,4.41433 -83.44918,8.53286 -42.403364,5.43642 -84.952836,7.82282 -126.97754,17.26904 -28.246471,7.19071 -49.298141,9.68161 -43.929376,-24.95631 24.918369,-9.10627 70.2615862,-9.57479 101.71958,-10.40134 39.000746,0.84647 80.061556,-0.47459 119.722056,-2.6199 -25.94908,-22.74646 50.27677,-14.39243 68.93797,-18.38229 -36.88661,-3.04688 -75.0562,-4.61568 -111.58744,2.14767 -3.96392,20.03676 -57.324183,2.62398 -80.634812,8.83516 -32.513512,-3.62627 -70.954689,5.04419 -99.671957,2.63971 -1.741191,-25.02553 48.31476,-2.79154 66.7317024,-10.45313 28.6292616,-3.82619 72.9581596,7.3614 92.8739736,-8.03399 39.363933,-1.68139 78.819953,0.0964 118.175703,-0.82553 -43.41365,-6.56072 -87.39816,-2.89174 -130.931146,-8.4668 -32.859758,0.1712 -65.972147,0.73471 -99.116895,1.18183 -15.073577,8.14469 -78.325429,-11.10026 -35.856702,-10.38524 45.5883136,4.62183 91.050507,0.6646 136.535591,5.95377 20.090652,1.20357 85.508032,6.31232 34.622562,0.28049 -52.465299,-6.18746 -105.261047,-10.71703 -158.078341,-14.65962 -18.2123,3.06026 -46.975089,-12.88778 -11.47662,-7.0689 77.269446,8.23175 154.968731,18.992 232.688591,26.47566 51.40054,5.66769 87.57786,12.64832 99.61908,-8.11366 16.11407,-32.28906 47.3593,-24.54999 75.76434,-29.34375 35.06717,-1.994 12.31904,-39.12155 9.77415,-58.19913 -14.7528,-19.8295 -31.42499,-41.2271 -25.78397,-68.08017 -3.09237,-29.15378 17.56512,-57.86486 46.06145,-64.67319 24.75752,-11.46266 53.23806,-1.60284 76.71163,8.52776 22.85583,16.97394 23.48182,47.48413 26.48821,72.61045 13.74197,24.12825 1.9883,53.27563 2.54414,77.49002 -1.76001,8.48805 -19.78557,22.49681 -27.99455,15.57909 -1.34513,1.99278 -7.88498,12.57218 12.23883,23.8288 32.01715,3.91133 46.96333,35.09418 48.87299,64.55963 25.2193,6.7804 55.93611,6.58882 83.42564,9.28619 30.7135,-0.18512 60.86012,7.22324 91.4683,7.99197 14.20809,7.29085 53.76734,-2.59799 53.49947,13.12881 -35.86137,0.12474 22.54973,3.29598 -2.15255,14.81886 -49.80703,-5.95492 -99.60572,-12.7856 -148.13886,-25.48473 -20.58652,0.97935 -60.04927,-6.48321 -68.61836,-3.06496 43.39092,12.84455 90.98711,4.75932 132.98094,24.02495 30.0439,2.48673 59.29241,17.3831 89.7154,11.69968 9.66933,25.82476 -22.2006,9.98111 -36.31423,11.66822 -24.87195,-7.44376 -49.48743,-16.85586 -75.44395,-18.85916 -39.07163,-19.63544 -84.94402,-14.2082 -125.87208,-28.36049 2.44152,-11.09749 -15.52729,-59.49928 -10.05461,-28.09117 -9.14196,40.60188 36.66258,40.21851 64.67037,43.37883 34.08911,3.45404 64.51153,22.47779 99.06371,22.04537 22.78463,8.55997 45.65917,15.00982 68.31297,23.18077 22.62721,-9.52897 29.21193,44.08689 9.89799,31.19701 -29.82127,-8.56555 -58.09752,-24.3518 -89.18073,-25.89115 -18.89925,-14.49194 -44.26516,-24.28693 -67.95316,-28.60791 -12.91494,-1.26873 -67.77023,-7.29899 -58.3001,-1.60139 28.36365,0.13801 55.43287,7.8495 79.56233,22.7403 37.71799,9.34408 74.35716,22.06859 109.44823,39.09812 14.40236,9.3344 43.38911,9.52192 40.07909,31.8432 6.86105,29.39928 -33.21302,-9.23756 -46.76338,-9.28721 -41.78929,-20.80453 -85.22997,-38.1591 -130.63315,-48.88245 -27.97109,-14.69941 -55.38633,-26.67715 -87.07399,-30.97391 -20.63968,-15.16334 -43.71132,-25.34772 -66.39571,-36.50082 -5.21723,-14.17339 -5.20038,-68.36561 -11.4295,-22.65935 -8.64278,36.7981 36.54272,30.37499 50.93469,53.24549 12.76037,-2.14565 32.78462,21.53569 57.76321,30.46052 40.97782,11.82363 83.59489,18.8458 121.56628,39.64701 39.60017,18.14378 79.43732,36.85268 115.23778,61.80463 10.54555,123.76662 21.09112,247.53327 31.63667,371.29981 -39.43876,3.3603 -78.87752,6.7208 -118.31627,10.0811 21.80891,-37.2469 56.9402,-68.0757 67.36985,-110.87334 4.64885,-21.98447 -11.5422,-37.90473 -20.20309,-55.68863 9.5806,-31.58345 -19.50287,-48.61643 -20.59814,-78.37777 0.46775,-22.84566 30.48966,-38.38105 20.32631,-63.30484 -16.93619,-39.45525 -55.78573,-63.25876 -89.97276,-86.4094 -50.56902,-28.09406 -104.93058,-50.53558 -161.17705,-64.38818 -20.01427,1.36996 -41.05772,-15.98681 -12.36898,-22.58521 -17.44499,-27.4136 -51.92043,-37.03598 -76.27053,-56.34757 -26.7698,-3.24393 -33.86635,-32.83795 -24.94913,-54.87852 0.20795,-27.67205 54.754,-31.74516 34.18085,-62.57831 7.30609,24.09389 -19.95618,29.32867 -38.34935,36.95487 -26.19673,10.23985 -12.51773,43.54456 -12.92971,65.108 15.56287,17.73137 41.47716,26.6695 57.33199,49.18236 17.63196,13.03657 49.86963,50.2126 9.24972,57.2522 -50.04892,11.65017 24.54877,22.25722 42.53932,26.13157 52.07598,11.95293 104.5005,25.48948 152.00504,50.45207 24.48555,10.71755 51.95093,22.43576 65.41585,46.75196 -0.42769,26.14008 -40.67149,36.03172 -34.3687,65.80663 11.646,22.77512 7.35195,43.76816 0.65352,64.38736 23.67038,24.4528 30.38061,67.40355 5.14174,93.51524 -12.48346,20.52885 -32.32482,33.57641 -50.39327,48.81411 -20.55256,15.6639 -15.70732,56.9309 -39.29338,61.6888 -171.28051,14.6316 -342.55134,29.8705 -513.899767,43.4208 z M 585.88874,546.18505 c -18.78987,-8.86215 -53.80228,-4.61779 -16.2131,-1.09207 0.57089,-1.00569 20.8764,3.9326 16.2131,1.09207 z m 139.18428,-13.0867 c 41.15316,-3.22785 -35.73691,-9.32351 -48.60468,-10.88619 -41.51125,-4.03061 -84.95272,-8.70539 -125.34034,-11.01648 -39.78286,1.60273 36.1422,11.05009 47.544,9.87787 30.42913,0.41411 60.79541,5.87005 91.04835,9.1645 11.63362,1.66574 23.54367,4.80565 35.35267,2.8603 z m -235.76278,-7.61683 c -0.8476,-27.68989 -1.21318,-60.93578 -29.95591,-77.48288 0.82934,-14.38827 -24.61213,-56.04617 -14.74294,-23.7095 2.36606,24.2219 22.85458,40.15389 26.21345,63.79191 8.08035,14.84619 -7.54512,44.19717 18.4854,37.40047 z m 13.94744,-0.41251 c 11.6243,-27.52524 -5.83573,-61.28131 -27.91157,-78.93212 -16.29004,-5.3143 -19.69451,-52.76309 -17.36234,-12.14475 11.41721,22.30853 41.07751,35.07321 40.96327,64.81008 4.49523,7.78543 -4.16092,22.73491 4.31064,26.26679 z m -46.9196,-4.2731 c 2.33053,-16.21178 7.14279,-40.74773 -7.51014,-55.28193 -7.22415,-11.9223 -6.04412,-62.43998 -17.42929,-50.58256 0.52548,28.26759 0.0945,54.61832 14.86716,79.89466 5.02889,5.4569 -1.16503,30.45825 10.07227,25.96983 z m -39.84188,-2.12204 c -5.77156,-35.14505 26.81399,-69.26768 9.27924,-104.75148 -11.59293,-22.54853 7.47942,42.76713 -9.29106,52.79297 -11.52948,11.36078 -17.50196,49.30885 0.0118,51.95851 z m -25.36405,-1.71859 c -13.30773,-35.25228 32.99919,-56.44262 26.18817,-90.59512 -4.68023,-34.20566 -19.20198,-32.00128 -8.62784,-1.00961 -7.2773,27.96192 -45.70692,38.03359 -33.69487,73.47193 0.50592,9.94226 4.78969,18.82337 16.13454,18.1328 z m 133.32778,-25.30819 c 1.5828,-27.07149 -55.28715,-60.89827 -17.41381,-24.78218 5.2498,0.0996 19.01891,37.7696 17.41381,24.78218 z m -36.43236,-43.82558 c -4.59182,-4.64457 -0.92231,1.94314 0,0 z m -11.34924,-35.39725 c 14.38505,-20.01501 10.52246,-54.06886 8.51272,-79.65655 -6.5502,-27.32246 -6.58247,-56.98857 -27.64138,-78.97292 -14.34424,-14.82909 -67.34729,-17.25485 -22.28895,-7.21567 23.1964,11.01411 30.94757,38.93346 40.78398,60.87521 -1.97491,29.07997 5.93591,58.23782 2.06539,86.87038 0.35084,5.90737 -13.48001,22.20168 -1.43176,18.09955 z m -16.98896,-2.1811 c 25.33226,-14.18227 9.84179,-49.91094 5.11436,-72.46967 2.56775,-29.46405 -5.28336,-59.57492 -25.12237,-81.72854 -14.48049,-12.42886 -62.39101,-19.87489 -18.53508,-4.34931 22.73386,17.32726 31.63839,45.18423 35.94829,72.24047 -4.29188,26.73127 18.31837,56.46954 -3.25546,80.41176 -6.63819,5.08974 -0.27518,8.60499 5.85026,5.89529 z m 29.52467,-8.53171 c 6.87259,-21.35568 0.51331,-51.17057 0.56033,-12.56197 1.57457,3.09016 -2.04656,11.7897 -0.56033,12.56197 z m -48.08545,4.22126 c 26.25905,-14.16816 1.09162,-43.98747 6.28811,-64.48208 1.72151,-30.48589 -11.833,-59.47191 -28.92068,-83.27814 -12.15954,-13.05186 -45.62383,-13.55192 -11.30247,-4.68839 17.85516,16.16382 4.66457,46.49608 21.25587,64.80542 8.64466,20.72931 -3.53927,37.72593 7.42269,59.15196 -1.14939,12.37931 -21.15132,32.4026 5.25643,28.49122 z m -18.52414,-6.9791 c 5.44881,-25.94031 0.73028,-55.11225 -7.90403,-77.40837 -21.01759,-10.41224 4.7131,-69.735 -11.04897,-57.51234 1.21551,18.11891 -2.55339,48.31235 -24.15281,52.44618 -43.5267,9.88123 1.34677,-62.09654 -27.56558,-40.9923 7.73191,7.84726 -10.9671,57.01024 24.63395,51.52369 32.27928,-25.18742 41.88442,35.27986 29.36885,54.73285 -4.32533,12.00526 5.49843,20.13726 16.66859,17.21029 z m -26.62692,-8.55145 c -6.14182,-18.57539 -19.45999,-11.08894 0,0 z m 0.72524,-10.06082 c 12.72956,-27.61647 -9.29375,-55.29023 -39.59812,-45.50768 -16.28318,-9.75339 -3.6122,-77.65984 -11.21291,-29.8965 -12.15633,34.81887 30.22156,40.41502 41.33976,54.14334 -8.50342,6.48865 5.13359,27.68908 9.47127,21.26084 z m -23.42738,-15.7918 c 2.81845,-10.2146 -43.46493,-30.81781 -11.30336,-6.57773 2.81961,1.03511 8.78429,11.67379 11.30336,6.57773 z m 120.31396,-31.49245 c -10.71339,-30.72471 -1.45209,6.70361 0,0 z M 384.78596,305.55056 c 30.80694,-13.60736 6.81403,-64.48445 -12.22532,-49.88226 39.86523,-6.10894 11.74953,63.66417 2.48214,32.455 32.49744,4.81509 -1.35823,-50.20524 -18.32489,-21.22491 21.71761,-11.64783 31.55238,13.72632 10.75611,21.92558 -6.3519,11.707 8.15609,18.42622 17.31196,16.72659 z m 93.98148,-36.92082 c -12.2776,-20.29126 -27.6349,-25.13189 0,0 z M -17.203744,1024.4932 c -4.869947,-25.09186 -8.038395,-52.99274 22.1767196,-32.23016 23.4265044,15.36596 12.9784304,62.26806 -12.0258894,70.16996 -13.9248922,6.5795 -5.5990192,-24.6379 -9.8641792,-34.5719 l -0.200267,-2.3504 -0.0867,-1.0176 z"
       id="path2996"
       inkscape:connector-curvature="0"
       sodipodi:nodetypes="cccccccccccccccccccccccccccccccccccccccccccccccccccsccccccccccccccccccccccccccccccccccccccccccccccccccccccccccccccccccccccccccccccccccccccccccccccccccccccccccccccccccccccccccccccccccccccccccccccccccccccccccccccccccccccccccccccccccccccccccc" />
  </g>
</svg>
